<svg width="32" height="32" viewBox="0 0 32 32" fill="none" xmlns="http://www.w3.org/2000/svg">
<g clip-path="url(#clip0_157_145)">
<path d="M23.2733 2.18182H3.63616C1.62797 2.18182 0 3.80979 0 5.81799V24.7277C0 26.7359 1.62797 28.3638 3.63616 28.3638H23.2733C25.2815 28.3638 26.9095 26.7359 26.9095 24.7277V5.81799C26.9095 3.80979 25.2815 2.18182 23.2733 2.18182Z" fill="#67ACDA"/>
<path d="M23.2727 2.18182H3.63616C1.62819 2.18182 0 3.81002 0 5.81799V9.45415H26.9095V5.81799C26.9095 3.81002 25.2806 2.18182 23.2727 2.18182Z" fill="#1C3052"/>
<path d="M7.27262 12.3635H5.81761C5.01441 12.3635 4.36328 13.0146 4.36328 13.8178V15.2728C4.36328 16.076 5.01441 16.7272 5.81761 16.7272H7.27262C8.07582 16.7272 8.72695 16.076 8.72695 15.2728V13.8178C8.72695 13.0146 8.07582 12.3635 7.27262 12.3635Z" fill="white"/>
<path d="M13.8185 12.3635H12.3635C11.5603 12.3635 10.9092 13.0146 10.9092 13.8178V15.2728C10.9092 16.076 11.5603 16.7272 12.3635 16.7272H13.8185C14.6217 16.7272 15.2728 16.076 15.2728 15.2728V13.8178C15.2728 13.0146 14.6217 12.3635 13.8185 12.3635Z" fill="white"/>
<path d="M20.3634 12.3635H18.9084C18.1052 12.3635 17.4541 13.0146 17.4541 13.8178V15.2728C17.4541 16.076 18.1052 16.7272 18.9084 16.7272H20.3634C21.1666 16.7272 21.8178 16.076 21.8178 15.2728V13.8178C21.8178 13.0146 21.1666 12.3635 20.3634 12.3635Z" fill="white"/>
<path d="M7.27262 19.6365H5.81761C5.01441 19.6365 4.36328 20.2876 4.36328 21.0908V22.5458C4.36328 23.349 5.01441 24.0002 5.81761 24.0002H7.27262C8.07582 24.0002 8.72695 23.349 8.72695 22.5458V21.0908C8.72695 20.2876 8.07582 19.6365 7.27262 19.6365Z" fill="white"/>
<path d="M13.8185 19.6365H12.3635C11.5603 19.6365 10.9092 20.2876 10.9092 21.0908V22.5458C10.9092 23.349 11.5603 24.0002 12.3635 24.0002H13.8185C14.6217 24.0002 15.2728 23.349 15.2728 22.5458V21.0908C15.2728 20.2876 14.6217 19.6365 13.8185 19.6365Z" fill="white"/>
<path d="M23.9998 32C28.418 32 31.9997 28.4183 31.9997 24.0002C31.9997 19.582 28.418 16.0003 23.9998 16.0003C19.5816 16.0003 16 19.582 16 24.0002C16 28.4183 19.5816 32 23.9998 32Z" fill="#1C3052"/>
<path d="M24.0006 30.5457C27.6156 30.5457 30.5461 27.6152 30.5461 24.0002C30.5461 20.3852 27.6156 17.4547 24.0006 17.4547C20.3856 17.4547 17.4551 20.3852 17.4551 24.0002C17.4551 27.6152 20.3856 30.5457 24.0006 30.5457Z" fill="white"/>
<path d="M6.90924 0C7.91357 0 8.72766 0.814097 8.72766 1.81842V4.00026C8.72766 5.00458 7.91357 5.81868 6.90924 5.81868C5.90492 5.81868 5.09082 5.00458 5.09082 4.00026V1.81842C5.09082 0.814097 5.90492 0 6.90924 0Z" fill="#67ACDA"/>
<path d="M20.0001 0C21.0044 0 21.8185 0.814097 21.8185 1.81842V4.00026C21.8185 5.00458 21.0044 5.81868 20.0001 5.81868C18.9957 5.81868 18.1816 5.00458 18.1816 4.00026V1.81842C18.1816 0.814097 18.9957 0 20.0001 0Z" fill="#67ACDA"/>
<path d="M25.4543 26.182C25.2682 26.182 25.082 26.1104 24.9402 25.9686L23.4859 24.5143C23.3488 24.3772 23.2725 24.1931 23.2725 24.0002V20.364C23.2725 19.9624 23.5977 19.6365 24 19.6365C24.4022 19.6365 24.7275 19.9624 24.7275 20.364V23.6995L25.9691 24.9411C26.2534 25.2254 26.2534 25.685 25.9691 25.9693C25.8273 26.1111 25.6411 26.1827 25.455 26.1827L25.4543 26.182Z" fill="#67ACDA"/>
</g>
<defs>
<clipPath id="clip0_157_145">
<rect width="32" height="32" fill="white"/>
</clipPath>
</defs>
</svg>
