<svg width="41" height="40" viewBox="0 0 41 40" fill="none" xmlns="http://www.w3.org/2000/svg">
<path d="M14.3938 20.0632L3.3087 9.8511C3.3087 9.8511 3.30402 9.86516 3.29935 9.86984L3.28064 9.8511C3.15435 10.1181 3.07484 10.4039 3.03742 10.699C3.01403 10.8348 3 10.9754 3 11.1159V28.8888C3 29.3572 3.12161 29.8163 3.34612 30.2239L9.49673 24.5697L14.3938 20.0632Z" fill="#67ACDA"/>
<path d="M19.9036 23.2346C20.072 23.3892 20.2871 23.4642 20.4976 23.4642C20.7128 23.4642 20.9279 23.3892 21.0916 23.2346L22.1393 22.2603L36.7792 8.80179C36.3208 8.4973 35.7829 8.33334 35.2357 8.33334H5.7642C5.21696 8.33334 4.67908 8.4973 4.2207 8.80179L18.8559 22.2603L19.9036 23.2346Z" fill="#1C3052"/>
<path d="M37.9624 10.699C37.9249 10.4086 37.8454 10.1181 37.7191 9.8511L37.7004 9.86984C37.7004 9.86984 37.6958 9.85579 37.6911 9.8511L26.606 20.0632L31.5031 24.5697L37.6537 30.2239C37.8782 29.8163 37.9998 29.3572 37.9998 28.8888V11.1159C37.9998 10.9754 37.9858 10.8348 37.9624 10.699Z" fill="#67ACDA"/>
<path d="M30.2734 25.3473V25.3379L25.5914 21.0189L25.5821 21.0282L25.5727 21.0189L23.3604 23.0519L22.032 24.2746C21.6017 24.6727 21.0545 24.8742 20.5026 24.8789C19.9553 24.8789 19.4081 24.6774 18.9731 24.2746L17.6447 23.0519L15.4324 21.0189L15.423 21.0282L15.4137 21.0189L10.7271 25.3379V25.3473L10.3856 25.6659L4.30518 31.2451C4.74484 31.5214 5.24998 31.6667 5.76916 31.6667H35.2406C35.7598 31.6667 36.2649 31.5214 36.7046 31.2451L30.6242 25.6659L30.278 25.3473H30.2734Z" fill="#67ACDA"/>
</svg>
