<svg width="41" height="40" viewBox="0 0 41 40" fill="none" xmlns="http://www.w3.org/2000/svg">
<g clip-path="url(#clip0_262_47)">
<path d="M20.5 40C31.5457 40 40.5 31.0457 40.5 20C40.5 8.9543 31.5457 0 20.5 0C9.4543 0 0.5 8.9543 0.5 20C0.5 31.0457 9.4543 40 20.5 40Z" fill="white"/>
<path fill-rule="evenodd" clip-rule="evenodd" d="M20.4998 5.18518C11.9872 5.18518 5.38867 11.4193 5.38867 19.843C5.38867 24.2489 7.19312 28.0563 10.1353 30.6844C10.3813 30.9067 10.5324 31.2148 10.5413 31.5467L10.6242 34.2341C10.6509 35.0904 11.5368 35.6504 12.322 35.3037L15.3205 33.9793C15.5753 33.8667 15.8598 33.8459 16.1265 33.92C17.5042 34.2993 18.9709 34.5007 20.4998 34.5007C29.0124 34.5007 35.6109 28.2667 35.6109 19.843C35.6109 11.4193 29.0124 5.18518 20.4998 5.18518Z" fill="url(#paint0_radial_262_47)"/>
<path fill-rule="evenodd" clip-rule="evenodd" d="M11.4242 24.1304L15.8627 17.0874C16.5679 15.9674 18.082 15.6889 19.1398 16.483L22.6716 19.1319C22.9946 19.3748 23.442 19.3748 23.765 19.1289L28.5324 15.5111C29.1694 15.0282 29.999 15.7896 29.5724 16.4652L25.1338 23.5082C24.4287 24.6282 22.9146 24.9067 21.8568 24.1126L18.325 21.4637C18.002 21.2207 17.5546 21.2207 17.2316 21.4667L12.4642 25.0844C11.8272 25.5674 10.9975 24.8059 11.4242 24.1304Z" fill="white"/>
</g>
<defs>
<radialGradient id="paint0_radial_262_47" cx="0" cy="0" r="1" gradientUnits="userSpaceOnUse" gradientTransform="translate(11.365 35.7422) scale(33.1852 33.1852)">
<stop stop-color="#5697FB"/>
<stop offset="0.61" stop-color="#8936F9"/>
<stop offset="0.93" stop-color="#DD537E"/>
<stop offset="1" stop-color="#E06F62"/>
</radialGradient>
<clipPath id="clip0_262_47">
<rect width="40" height="40" fill="white" transform="translate(0.5)"/>
</clipPath>
</defs>
</svg>
