<svg width="41" height="40" viewBox="0 0 41 40" fill="none" xmlns="http://www.w3.org/2000/svg">
<path d="M32.0814 31.7246C31.9859 30.7594 31.4687 29.8971 30.662 29.359L25.1934 25.7136C23.9167 24.8628 22.21 25.0348 21.1263 26.1164L19.3786 27.8788C18.981 28.0173 17.1421 27.2378 14.7744 24.8691C12.4057 22.4993 11.6368 20.6761 11.7374 20.3132L13.5302 18.5204C14.6128 17.4378 14.7828 15.7268 13.9331 14.4532L10.2877 8.98463C9.7495 8.17789 8.88719 7.66077 7.92211 7.5653C6.95489 7.46877 6.01288 7.80865 5.32781 8.49371L2.62337 11.1982C-1.08289 14.9044 3.74377 23.0491 10.1702 29.4766C14.5391 33.8455 24.0997 41.3774 28.4486 37.0234L31.153 34.3189C31.838 33.6349 32.1768 32.6886 32.0814 31.7246Z" fill="#1C3052"/>
<path d="M21.8867 1.66666C21.293 1.66666 20.8125 2.14712 20.8125 2.74087C20.8125 3.33463 21.293 3.81509 21.8867 3.81509C29.5867 3.81509 35.8515 10.0799 35.8515 17.7799C35.8515 18.3736 36.332 18.8541 36.9257 18.8541C37.5195 18.8541 37.9999 18.3736 37.9999 17.7799C37.9999 8.89455 30.7721 1.66666 21.8867 1.66666ZM21.8867 5.96352C21.293 5.96352 20.8125 6.44398 20.8125 7.03773C20.8125 7.63149 21.293 8.11195 21.8867 8.11195C27.2179 8.11195 31.5547 12.4487 31.5547 17.7799C31.5547 18.3736 32.0351 18.8541 32.6289 18.8541C33.2226 18.8541 33.7031 18.3736 33.7031 17.7799C33.7031 11.2643 28.4023 5.96352 21.8867 5.96352ZM21.8867 10.2604C21.293 10.2604 20.8125 10.7408 20.8125 11.3346C20.8125 11.9283 21.293 12.4088 21.8867 12.4088C24.8482 12.4088 27.2578 14.8184 27.2578 17.7799C27.2578 18.3736 27.7383 18.8541 28.332 18.8541C28.9258 18.8541 29.4062 18.3736 29.4062 17.7799C29.4062 13.6341 26.0325 10.2604 21.8867 10.2604ZM21.8867 14.5572C21.293 14.5572 20.8125 15.0377 20.8125 15.6315C20.8125 16.2252 21.293 16.7057 21.8867 16.7057C22.4794 16.7057 22.9609 17.1872 22.9609 17.7799C22.9609 18.3736 23.4414 18.8541 24.0351 18.8541C24.6289 18.8541 25.1094 18.3736 25.1094 17.7799C25.1094 16.0028 23.6638 14.5572 21.8867 14.5572Z" fill="#67ACDA"/>
</svg>
