<svg width="48" height="48" viewBox="0 0 48 48" fill="none" xmlns="http://www.w3.org/2000/svg">
<path d="M22 20.3L12.2 30.1C11.8 30.5 11.3333 30.6917 10.8 30.675C10.2666 30.6583 9.79997 30.45 9.39997 30.05C9.03331 29.65 8.84164 29.1833 8.82497 28.65C8.80831 28.1167 8.99997 27.65 9.39997 27.25L22.6 14.05C22.8 13.85 23.0166 13.7083 23.25 13.625C23.4833 13.5417 23.7333 13.5 24 13.5C24.2666 13.5 24.5166 13.5417 24.75 13.625C24.9833 13.7083 25.2 13.85 25.4 14.05L38.6 27.25C38.9666 27.6167 39.15 28.075 39.15 28.625C39.15 29.175 38.9666 29.65 38.6 30.05C38.2 30.45 37.725 30.65 37.175 30.65C36.625 30.65 36.15 30.45 35.75 30.05L26 20.3V42.65C26 43.2167 25.8083 43.6917 25.425 44.075C25.0416 44.4583 24.5666 44.65 24 44.65C23.4333 44.65 22.9583 44.4583 22.575 44.075C22.1916 43.6917 22 43.2167 22 42.65V20.3Z" fill="white"/>
<path d="M12 4.5H36" stroke="#67ACDA" stroke-width="3" stroke-linecap="round"/>
</svg>
