<svg width="41" height="40" viewBox="0 0 41 40" fill="none" xmlns="http://www.w3.org/2000/svg">
<g clip-path="url(#clip0_262_53)">
<path d="M20.5 40C31.5457 40 40.5 31.0457 40.5 20C40.5 8.9543 31.5457 0 20.5 0C9.4543 0 0.5 8.9543 0.5 20C0.5 31.0457 9.4543 40 20.5 40Z" fill="url(#paint0_linear_262_53)"/>
<path fill-rule="evenodd" clip-rule="evenodd" d="M30.1209 10.6252C27.7268 8.22816 24.5387 6.90668 21.1461 6.90668C14.1535 6.90668 8.46165 12.5956 8.45868 19.5882C8.45868 21.8222 9.04239 24.0059 10.1535 25.9289L8.35498 32.5008L15.0809 30.7378C16.9328 31.7482 19.0216 32.2815 21.1431 32.2815H21.1491C28.1416 32.2815 33.8335 26.5926 33.8365 19.597C33.8365 16.2074 32.5179 13.0222 30.1239 10.6252H30.1209ZM21.1461 30.1393H21.1431C19.2498 30.1393 17.395 29.6296 15.7772 28.6696L15.392 28.4415L11.4009 29.4874L12.4676 25.597L12.2157 25.197C11.1609 23.52 10.6039 21.5793 10.6039 19.5882C10.6039 13.7748 15.3357 9.04594 21.155 9.04594C23.9728 9.04594 26.6187 10.1452 28.6098 12.1363C30.6009 14.1304 31.6972 16.7763 31.6942 19.5941C31.6942 25.4074 26.9624 30.1363 21.1491 30.1363L21.1461 30.1393ZM26.9298 22.243C26.6128 22.083 25.0542 21.3185 24.7639 21.2119C24.4735 21.1052 24.2631 21.0519 24.0498 21.3719C23.8394 21.6889 23.232 22.403 23.0453 22.6133C22.8616 22.8237 22.675 22.8504 22.3579 22.6933C22.0409 22.5333 21.0187 22.2015 19.8098 21.12C18.8676 20.2785 18.2305 19.2415 18.0468 18.9245C17.8631 18.6074 18.0261 18.4356 18.1861 18.2785C18.3283 18.1363 18.5031 17.9082 18.6602 17.7245C18.8172 17.5408 18.8705 17.4074 18.9772 17.197C19.0839 16.9867 19.0305 16.8 18.9505 16.643C18.8705 16.483 18.2365 14.9245 17.9728 14.2904C17.715 13.6711 17.4542 13.757 17.2587 13.7452C17.075 13.7363 16.8616 13.7333 16.6513 13.7333C16.4409 13.7333 16.0972 13.8133 15.8068 14.1304C15.5165 14.4474 14.6987 15.2148 14.6987 16.7733C14.6987 18.3319 15.8335 19.84 15.9935 20.0504C16.1505 20.2608 18.2276 23.4637 21.4098 24.8356C22.1653 25.1615 22.7579 25.357 23.2172 25.5022C23.9757 25.7422 24.6691 25.7096 25.2142 25.6267C25.8246 25.5348 27.0898 24.8593 27.3535 24.1185C27.6172 23.3778 27.6172 22.7437 27.5372 22.6104C27.4572 22.477 27.2468 22.4 26.9298 22.24V22.243Z" fill="white"/>
</g>
<defs>
<linearGradient id="paint0_linear_262_53" x1="20.5" y1="37.0933" x2="20.5" y2="-2.90667" gradientUnits="userSpaceOnUse">
<stop stop-color="#78CD51"/>
<stop offset="1" stop-color="#A0FC84"/>
</linearGradient>
<clipPath id="clip0_262_53">
<rect width="40" height="40" fill="white" transform="translate(0.5)"/>
</clipPath>
</defs>
</svg>
